<?xml version="1.0" encoding="utf-8"?>
<!-- Generator: Adobe Illustrator 28.0.0, SVG Export Plug-In . SVG Version: 6.00 Build 0)  -->
<svg version="1.1" id="Layer_3" xmlns="http://www.w3.org/2000/svg" xmlns:xlink="http://www.w3.org/1999/xlink" x="0px" y="0px"
	 viewBox="0 0 2344 2715" style="enable-background:new 0 0 2344 2715;" xml:space="preserve">
<style type="text/css">
	.st0{fill:#FFFFFF;stroke:#000000;stroke-width:5;stroke-miterlimit:10;}
</style>
<path class="st0" d="M1344.4,247.7v-73.2c-333.4,16.4-598.6,291.9-598.6,629.4c0,138.2,44.5,266.1,120,370
	c-23.1-6-46.8-10.6-70.9-14c-28.5-4-57.6-6-87.1-6c-348.1,0-630.2,282.1-630.2,630.2c0,348.1,282.1,630.2,630.2,630.2
	c348,0,630.2-282.1,630.2-630.2c0-138.2-44.5-266.1-120-370c40.7,10.5,83,17,126.4,19.2v-73.1c-95.2-5.3-184.1-34.6-260.6-81.8
	c-14.6-9-28.8-18.6-42.5-28.9C906.3,1147.7,818.9,986,818.9,803.9C818.9,506.8,1051.5,264,1344.4,247.7z M1000,1309.7
	c14.7,9.1,29,18.8,42.7,29.2c0,0,0,0,0,0c134.9,101.7,222.2,263.3,222.2,445.2c0,307.7-249.4,557.1-557.1,557.1
	c-307.7,0-557.2-249.4-557.2-557.1S400.1,1227,707.8,1227C815,1227,915.1,1257.2,1000,1309.7z"/>
<path class="st0" d="M1657.9,1377.7c217.9-99.2,369.4-318.8,369.4-573.8c0-163.6-62.4-312.7-164.7-424.8
	c-96.8-106-229.3-178.8-378.4-199.4c-6.6-0.9-13.1-1.7-19.7-2.4c-22.1-2.4-44.6-3.6-67.4-3.6c-10.6,0-21.1,0.2-31.5,0.8V2415h99
	v-984.5c34.1-3.6,67.3-9.9,99.5-18.8l521.4,995.5l87.7-45.9L1657.9,1377.7z M1464.4,1357V250.8c275.9,33.3,489.7,268.2,489.7,553.1
	C1954.1,1088.7,1740.3,1323.7,1464.4,1357z"/>
</svg>
